<svg xmlns="http://www.w3.org/2000/svg" version="1.1" xmlns:xlink="http://www.w3.org/1999/xlink" xmlns:svgjs="http://svgjs.dev/svgjs" viewBox="0 0 2.5433349609375 2.9217340316467784"><g transform="matrix(0.8571428571428571,0,0,0.8571428571428571,0.3633335658482143,1.6313719607479014)"><g clip-path="url(#SvgjsClipPath16527)"><g clip-path="url(#SvgjsClipPath165257de97324-9533-47fc-afb2-9930619a73e4)"><path d=" M 0.31112162923603015 -1.264698373122078 C 0.31112162923603015 -1.1990118874305153 0.3112785187117433 -1.105486933168419 0.31253991009647664 -1.0521758893211062 C 0.3132490505266998 -1.0223668889356161 0.30473308978499253 -0.9934239184560625 0.288648780734885 -0.9690621206673316 C 0.30473308978499253 -0.944694047299572 0.31325532610572837 -0.9156757698716762 0.31253991009647664 -0.8858667694861861 C 0.3112785187117433 -0.8325557256388731 0.31112162923603015 -0.7391123539041479 0.31112162923603015 -0.6734258682125849 C 0.31112162923603015 -0.629741562595028 0.3249216275197549 -0.613412505962808 0.336751093988523 -0.6127033655325846 L 0.3622236692653028 -0.6127033655325846 L 0.3622236692653028 -0.49102616374852903 L 0.3388032083308504 -0.49031702331830573 C 0.33825095737634037 -0.49031702331830573 0.3374602344187463 -0.49023544079093484 0.3365188975644676 -0.49023544079093484 C 0.3232711502352531 -0.49023544079093484 0.27871453913273125 -0.4932351675665696 0.2400757990541077 -0.5307694057361726 C 0.20601195608727835 -0.5637350223730102 0.18865998007340892 -0.6117557530992774 0.18865998007340892 -0.6734258682125848 C 0.18865998007340892 -0.7198714286026924 0.18913064850054823 -0.7662416820444578 0.18952600997934527 -0.8071710084684925 C 0.18983978893077147 -0.838555179190142 0.19007826093385538 -0.8664752302880463 0.19007826093385538 -0.8880004663558843 C 0.19007826093385538 -0.905584638793809 0.1638212382785101 -0.9335799968400554 0.14197594768021737 -0.9335799968400554 L 0.14197594768021737 -1.0045505200736355 C 0.1638212382785101 -1.0045505200736355 0.19007826093385538 -1.0324642955925112 0.19007826093385538 -1.050048468030436 C 0.19007826093385538 -1.071573704098274 0.18983978893077147 -1.099493755196178 0.18952600997934527 -1.1309595084451987 C 0.18913064850054823 -1.1718888348692333 0.18865998007340892 -1.2182528127319703 0.18865998007340892 -1.2647046487011064 C 0.18865998007340892 -1.3263684882353852 0.2060056805082498 -1.37431391201331 0.24015738158147854 -1.4073611111775186 C 0.2814757939052819 -1.4474997146439594 0.32965968968629067 -1.4480519655984696 0.338809483909879 -1.4478134935953857 L 0.36222994484433124 -1.4471043531651624 L 0.36222994484433124 -1.3254271513811067 L 0.33668206261920924 -1.3254271513811067 C 0.32485259615044115 -1.3245611214751702 0.31113418039408725 -1.308156757894608 0.31113418039408725 -1.2647046487011064 Z" fill="#e9ae3f" transform="matrix(1,0,0,1,0,0)" fill-rule="nonzero"></path></g><g clip-path="url(#SvgjsClipPath165257de97324-9533-47fc-afb2-9930619a73e4)"><path d=" M 1.80832417154522 -1.264698373122078 C 1.80832417154522 -1.1990118874305153 1.8081672820695072 -1.105486933168419 1.8069058906847737 -1.0521758893211062 C 1.8061967502545504 -1.0223668889356161 1.814712710996258 -0.9934239184560625 1.8307970200463655 -0.9690621206673316 C 1.814712710996258 -0.944694047299572 1.806190474675522 -0.9156757698716762 1.8069058906847737 -0.8858667694861861 C 1.8081672820695072 -0.8325557256388731 1.80832417154522 -0.7391123539041479 1.80832417154522 -0.6734258682125849 C 1.80832417154522 -0.629741562595028 1.7945241732614958 -0.613412505962808 1.7826947067927272 -0.6127033655325846 L 1.7572221315159475 -0.6127033655325846 C 1.7572221315159475 -0.6127033655325846 1.7572221315159475 -0.49102616374852903 1.7572221315159475 -0.49102616374852903 L 1.7806425924504001 -0.49031702331830573 C 1.78119484340491 -0.49031702331830573 1.781985566362504 -0.49023544079093484 1.7829269032167827 -0.49023544079093484 C 1.7961746505459972 -0.49023544079093484 1.8407312616485192 -0.4932351675665696 1.8793700017271426 -0.5307694057361726 C 1.913433844693972 -0.5637350223730102 1.9307858207078412 -0.6117557530992774 1.9307858207078412 -0.6734258682125848 C 1.9307858207078412 -0.7198714286026924 1.9303151522807018 -0.7662416820444578 1.9299197908019048 -0.8071710084684925 C 1.9296060118504785 -0.838555179190142 1.9293675398473946 -0.8664752302880463 1.9293675398473946 -0.8880004663558843 C 1.9293675398473946 -0.905584638793809 1.9556245625027397 -0.9335799968400554 1.9774698531010326 -0.9335799968400554 L 1.9774698531010326 -1.0045505200736355 C 1.9556245625027397 -1.0045505200736355 1.9293675398473946 -1.0324642955925112 1.9293675398473946 -1.050048468030436 C 1.9293675398473946 -1.071573704098274 1.9296060118504785 -1.099493755196178 1.9299197908019048 -1.1309595084451987 C 1.9303151522807018 -1.1718888348692333 1.9307858207078412 -1.2182528127319703 1.9307858207078412 -1.2647046487011064 C 1.9307858207078412 -1.3263684882353852 1.9134401202730005 -1.37431391201331 1.8792884191997716 -1.4073611111775186 C 1.8379700068759681 -1.4474997146439594 1.7897861110949593 -1.4480519655984696 1.7806363168713712 -1.4478134935953857 L 1.7572158559369189 -1.4471043531651624 L 1.7572158559369189 -1.3254271513811067 C 1.7572158559369189 -1.3254271513811067 1.782763738162041 -1.3254271513811067 1.782763738162041 -1.3254271513811067 C 1.794593204630809 -1.3245611214751702 1.808311620387163 -1.308156757894608 1.808311620387163 -1.2647046487011064 Z" fill="#e9ae3f" transform="matrix(1,0,0,1,0,0)" fill-rule="nonzero"></path></g><g clip-path="url(#SvgjsClipPath165257de97324-9533-47fc-afb2-9930619a73e4)"><path d=" M 0.5226525715504955 -1.3880699812438353 L 1.5968497094420115 -1.3880699812438353 L 1.5968497094420115 -0.5651093741802571 L 0.5226525715504955 -0.5651093741802571 Z" fill="#343432" transform="matrix(1,0,0,1,0,0)" fill-rule="nonzero"></path></g><g clip-path="url(#SvgjsClipPath165257de97324-9533-47fc-afb2-9930619a73e4)"><path d=" M 1.6697217331212346 -0.4901977873167638 L 1.6697217331212346 -1.4478448714905283 L 0.4497115165019586 -1.4478448714905283 L 0.4497115165019586 -0.4901977873167638 L 0.955975027891063 -0.4901977873167638 L 0.955975027891063 -0.35385455734304694 L 0.8489638542966684 -0.35385455734304694 L 0.770029621275891 -0.25 L 1.3493973527682739 -0.25 L 1.2704631197474965 -0.35385455734304694 L 1.1635335286804727 -0.35385455734304694 L 1.1635335286804727 -0.4901977873167638 L 1.6697217331212346 -0.4901977873167638 Z M 0.49899991419198775 -0.5414567168217493 L 0.49899991419198775 -1.4117289141813716 L 1.620514917958576 -1.4117289141813716 L 1.620514917958576 -0.5414567168217493 L 0.49899991419198775 -0.5414567168217493 Z" fill="#343432" transform="matrix(1,0,0,1,0,0)" fill-rule="nonzero"></path></g></g><g><path d=" M 0.0495 1.05 Q 0.036000000000000004 1.05 0.027 1.0402500000000001 Q 0.018000000000000002 1.0305 0.018000000000000002 1.0185 Q 0.018000000000000002 1.0110000000000001 0.0195 1.0050000000000001 L 0.3765 0.04049999999999998 Q 0.381 0.02400000000000002 0.3945 0.01200000000000001 Q 0.40800000000000003 0 0.432 0 L 0.624 0 Q 0.648 0 0.6615 0.01200000000000001 Q 0.675 0.02400000000000002 0.6795 0.04049999999999998 L 1.0365 1.0050000000000001 Q 1.038 1.0110000000000001 1.038 1.0185 Q 1.038 1.0305 1.029 1.0402500000000001 Q 1.02 1.05 1.0065 1.05 L 0.8505 1.05 Q 0.8280000000000001 1.05 0.8175 1.0395 Q 0.807 1.0290000000000001 0.804 1.02 L 0.7395 0.8520000000000001 L 0.3165 0.8520000000000001 L 0.252 1.02 Q 0.249 1.0290000000000001 0.23850000000000002 1.0395 Q 0.228 1.05 0.20550000000000002 1.05 L 0.0495 1.05 M 0.372 0.6585000000000001 L 0.6825 0.6585000000000001 L 0.528 0.22650000000000003 L 0.372 0.6585000000000001 M 1.20446923828125 1.05 Q 1.1879692382812501 1.05 1.17746923828125 1.0395 Q 1.16696923828125 1.0290000000000001 1.16696923828125 1.0125 L 1.16696923828125 0.03750000000000009 Q 1.16696923828125 0.02100000000000013 1.17746923828125 0.010499999999999954 Q 1.1879692382812501 0 1.20446923828125 0 L 1.58096923828125 0 Q 1.73096923828125 0 1.83146923828125 0.047250000000000014 Q 1.93196923828125 0.09450000000000003 1.9852192382812501 0.18525000000000003 Q 2.03846923828125 0.276 2.04146923828125 0.4095000000000001 Q 2.04296923828125 0.47550000000000003 2.04296923828125 0.525 Q 2.04296923828125 0.5745 2.04146923828125 0.639 Q 2.03696923828125 0.7785 1.9859692382812502 0.8700000000000001 Q 1.93496923828125 0.9615 1.83596923828125 1.0057500000000001 Q 1.73696923828125 1.05 1.58846923828125 1.05 L 1.20446923828125 1.05 M 1.40546923828125 0.8565 L 1.58096923828125 0.8565 Q 1.65596923828125 0.8565 1.7039692382812501 0.8340000000000001 Q 1.7519692382812502 0.8115 1.7752192382812502 0.76275 Q 1.7984692382812502 0.714 1.79996923828125 0.636 Q 1.80146923828125 0.5925 1.8022192382812499 0.558 Q 1.8029692382812499 0.5235000000000001 1.8022192382812499 0.489 Q 1.80146923828125 0.4545 1.79996923828125 0.4125 Q 1.79696923828125 0.30000000000000004 1.74221923828125 0.24675000000000002 Q 1.68746923828125 0.1935 1.57346923828125 0.1935 L 1.40546923828125 0.1935 L 1.40546923828125 0.8565" fill="#343432" fill-rule="nonzero"></path></g><g></g></g><defs><clipPath id="SvgjsClipPath16527"><path d=" M 0.14197594768021737 -1.4478448714905283 h 1.8354939054208153 v 1.1978448714905283 h -1.8354939054208153 Z"></path></clipPath><clipPath id="SvgjsClipPath165257de97324-9533-47fc-afb2-9930619a73e4"><path d=" M 0.14197594768021737 -1.4478448714905283 L 1.9774698531010326 -1.4478448714905283 L 1.9774698531010326 -0.25 L 0.14197594768021737 -0.25 Z"></path></clipPath></defs></svg>